<svg width="24" height="24" viewBox="0 0 24 24" fill="none" xmlns="http://www.w3.org/2000/svg">
<rect x="0.5" y="0.5" width="23" height="23" rx="5.5" stroke="#EBD01D"/>
<g clip-path="url(#clip0)">
<path d="M12.959 11.2754H11.959C11.959 11.8277 12.4067 12.2754 12.959 12.2754V11.2754ZM15.9277 11.2754H16.9277C16.9277 10.7231 16.48 10.2754 15.9277 10.2754V11.2754ZM15.9277 13.0098V14.0098C16.48 14.0098 16.9277 13.5621 16.9277 13.0098H15.9277ZM12.959 13.0098V12.0098C12.4067 12.0098 11.959 12.4575 11.959 13.0098H12.959ZM12.959 16.3926V17.3926C13.5113 17.3926 13.959 16.9449 13.959 16.3926H12.959ZM11.1152 16.3926H10.1152C10.1152 16.9449 10.5629 17.3926 11.1152 17.3926V16.3926ZM11.1152 13.0098H12.1152C12.1152 12.4575 11.6675 12.0098 11.1152 12.0098V13.0098ZM8.13086 13.0098H7.13086C7.13086 13.5621 7.57857 14.0098 8.13086 14.0098V13.0098ZM8.13086 11.2754V10.2754C7.57857 10.2754 7.13086 10.7231 7.13086 11.2754H8.13086ZM11.1152 11.2754V12.2754C11.6675 12.2754 12.1152 11.8277 12.1152 11.2754H11.1152ZM11.1152 8.11133V7.11133C10.5629 7.11133 10.1152 7.55904 10.1152 8.11133H11.1152ZM12.959 8.11133H13.959C13.959 7.55904 13.5113 7.11133 12.959 7.11133V8.11133ZM12.959 12.2754H15.9277V10.2754H12.959V12.2754ZM14.9277 11.2754V13.0098H16.9277V11.2754H14.9277ZM15.9277 12.0098H12.959V14.0098H15.9277V12.0098ZM11.959 13.0098V16.3926H13.959V13.0098H11.959ZM12.959 15.3926H11.1152V17.3926H12.959V15.3926ZM12.1152 16.3926V13.0098H10.1152V16.3926H12.1152ZM11.1152 12.0098H8.13086V14.0098H11.1152V12.0098ZM9.13086 13.0098V11.2754H7.13086V13.0098H9.13086ZM8.13086 12.2754H11.1152V10.2754H8.13086V12.2754ZM12.1152 11.2754V8.11133H10.1152V11.2754H12.1152ZM11.1152 9.11133H12.959V7.11133H11.1152V9.11133ZM11.959 8.11133V11.2754H13.959V8.11133H11.959Z" fill="#EBD01D"/>
</g>
<defs>
<clipPath id="clip0">
<rect x="5" y="6" width="17.3333" height="17.3333" rx="8" fill="white"/>
</clipPath>
</defs>
</svg>
