<svg width="40" height="40" viewBox="0 0 40 40" fill="none" xmlns="http://www.w3.org/2000/svg">
<g filter="url(#filter0_d)">
<path d="M20 34C16.287 34 12.726 32.525 10.1005 29.8995C7.475 27.274 6 23.713 6 20C6 16.287 7.475 12.726 10.1005 10.1005C12.726 7.475 16.287 6 20 6C23.713 6 27.274 7.475 29.8995 10.1005C32.525 12.726 34 16.287 34 20C34 23.713 32.525 27.274 29.8995 29.8995C27.274 32.525 23.713 34 20 34ZM20 36C24.2435 36 28.3131 34.3143 31.3137 31.3137C34.3143 28.3131 36 24.2435 36 20C36 15.7565 34.3143 11.6869 31.3137 8.68629C28.3131 5.68571 24.2435 4 20 4C15.7565 4 11.6869 5.68571 8.68629 8.68629C5.68571 11.6869 4 15.7565 4 20C4 24.2435 5.68571 28.3131 8.68629 31.3137C11.6869 34.3143 15.7565 36 20 36Z" fill="#E0E0E0"/>
<path d="M16.542 14.11C16.7056 14.0257 16.8892 13.9883 17.0727 14.0017C17.2562 14.0151 17.4324 14.0789 17.582 14.186L24.582 19.186C24.7116 19.2785 24.8173 19.4006 24.8902 19.5422C24.9631 19.6838 25.0011 19.8407 25.0011 20C25.0011 20.1592 24.9631 20.3162 24.8902 20.4578C24.8173 20.5993 24.7116 20.7215 24.582 20.814L17.582 25.814C17.4325 25.921 17.2563 25.9847 17.0729 25.9981C16.8895 26.0115 16.706 25.9741 16.5425 25.89C16.379 25.8058 16.2418 25.6783 16.1461 25.5212C16.0504 25.3642 15.9999 25.1839 16 25V15C15.9998 14.8161 16.0503 14.6358 16.1459 14.4788C16.2415 14.3218 16.3786 14.1942 16.542 14.11Z" fill="#E0E0E0"/>
</g>
<defs>
<filter id="filter0_d" x="0" y="0" width="40" height="40" filterUnits="userSpaceOnUse" color-interpolation-filters="sRGB">
<feFlood flood-opacity="0" result="BackgroundImageFix"/>
<feColorMatrix in="SourceAlpha" type="matrix" values="0 0 0 0 0 0 0 0 0 0 0 0 0 0 0 0 0 0 127 0"/>
<feOffset/>
<feGaussianBlur stdDeviation="2"/>
<feColorMatrix type="matrix" values="0 0 0 0 0 0 0 0 0 0 0 0 0 0 0 0 0 0 0.25 0"/>
<feBlend mode="normal" in2="BackgroundImageFix" result="effect1_dropShadow"/>
<feBlend mode="normal" in="SourceGraphic" in2="effect1_dropShadow" result="shape"/>
</filter>
</defs>
</svg>
